#N canvas 1516 144 764 846 10;
#X obj 99 86 table \$0-audio 44100;
#X text 97 67 sample buffer;
#X text 434 64 click to record (44100 samples);
#X obj 434 95 adc~;
#X obj 482 94 bng 30 250 50 0 empty empty empty 17 7 0 10 -260097 -1
-1;
#X text 527 100 from soundcard;
#X obj 436 159 tabwrite~ \$0-audio;
#X text 101 167 'tape';
#X obj 45 194 hsl 128 15 0.5 3 0 0 empty empty playback_speed 20 8
0 10 -262144 -1 -1 2600 1;
#X floatatom 62 229 5 0 0 0 - - -;
#X obj 46 266 phasor~;
#X obj 44 303 *~ 44100;
#X obj 39 348 send~ \$0-index;
#X obj 245 225 t b f;
#X msg 243 259 1;
#X obj 240 296 -;
#X text 281 258 speed/pitch coupling;
#X obj 283 296 tgl 15 0 empty empty empty 17 7 0 10 -262144 -1 -1 0
1;
#X obj 239 335 spigot;
#X obj 401 266 hsl 128 15 0.5 1.5 0 0 empty empty pitch_shift 20 8
0 10 -262144 -1 -1 0 1;
#X floatatom 428 292 5 0 0 0 - - -;
#X obj 396 292 - 1;
#X obj 397 329 t b f;
#X obj 396 363 +;
#X obj 395 400 * 20;
#X obj 394 440 phasor~;
#X text 432 399 20 = 44100 / 2205;
#X text 454 439 index offset generator;
#X text 163 474 playback1;
#X obj 168 518 +~ 0;
#X obj 100 555 -~ 0.5;
#X obj 166 555 *~ 2205;
#X text 90 528 window;
#X text 223 554 max. offset;
#X obj 99 590 *~ -0.5;
#X obj 99 628 cos~;
#X obj 151 667 *~;
#X obj 165 619 tabread4~ \$0-audio;
#X obj 191 588 receive~ \$0-index;
#X text 498 484 playback2;
#X obj 429 487 +~ 0.5;
#X obj 429 519 wrap~;
#X obj 429 573 -~ 0.5;
#X obj 509 574 *~ 2205;
#X text 435 555 window;
#X text 564 573 max. offset;
#X obj 428 607 *~ -0.5;
#X obj 534 607 receive~ \$0-index;
#X obj 505 642 tabread4~ \$0-audio;
#X obj 428 643 cos~;
#X obj 428 681 *~;
#X obj 317 729 +~;
#X obj 388 729 hsl 128 15 0 1 0 0 empty empty sound_levels 20 8 0 10
-262144 -1 -1 10000 1;
#X obj 317 754 *~ 0;
#X floatatom 385 753 5 0 0 0 - - -;
#X obj 315 783 dac~;
#X text 41 743 tabread4~ does interpolated reading of a buffer;
#X connect 3 0 6 0;
#X connect 3 1 6 0;
#X connect 4 0 6 0;
#X connect 8 0 9 0;
#X connect 8 0 10 0;
#X connect 8 0 13 0;
#X connect 10 0 11 0;
#X connect 11 0 12 0;
#X connect 13 0 14 0;
#X connect 13 1 15 1;
#X connect 14 0 15 0;
#X connect 15 0 18 0;
#X connect 17 0 18 1;
#X connect 18 0 23 0;
#X connect 19 0 21 0;
#X connect 19 0 20 0;
#X connect 21 0 22 0;
#X connect 22 0 23 0;
#X connect 22 1 23 1;
#X connect 23 0 24 0;
#X connect 24 0 25 0;
#X connect 25 0 29 0;
#X connect 25 0 40 0;
#X connect 29 0 30 0;
#X connect 29 0 31 0;
#X connect 30 0 34 0;
#X connect 31 0 37 0;
#X connect 34 0 35 0;
#X connect 35 0 36 0;
#X connect 36 0 51 0;
#X connect 37 0 36 1;
#X connect 38 0 37 0;
#X connect 40 0 41 0;
#X connect 41 0 42 0;
#X connect 41 0 43 0;
#X connect 42 0 46 0;
#X connect 43 0 48 0;
#X connect 46 0 49 0;
#X connect 47 0 48 0;
#X connect 48 0 50 1;
#X connect 49 0 50 0;
#X connect 50 0 51 1;
#X connect 51 0 53 0;
#X connect 52 0 53 1;
#X connect 52 0 54 0;
#X connect 53 0 55 0;
#X connect 53 0 55 1;
