#N canvas 30 23 1410 855 10;
#X obj 382 189 tabwrite curve;
#X msg -32 -2178 166 \, 167 \, 329 \, 329 \, 285 \, 289 \, 290 \, 315
\, 286 \, 288 \, 291 \, 283 \, 291 \, 314 \, 283 \, 290 \, 285 \, 310
\, 290 \, 285 \, 284 \, 40 \, 51 \, 53 \, 64 \, 289 \, 286 \, 313 \,
52 \, 329 \, 53 \, 309 \, 317 \, 355 \, 323 \, 356 \, 396 \, 478 \,
479 \, 51 \, 53 \, 53 \, 488 \, 495 \, 496 \, 488 \, 54 \, 56 \, 56
\, 54 \, 51 \, 52 \, 57 \, 59 \, 59 \, 57 \, 52 \, 53 \, 54 \, 53 \,
60 \, 61 \, 62 \, 60 \, 499 \, 499 \, 54 \, 57 \, 57 \, 55 \, 62 \,
64 \, 63 \, 58 \, 60 \, 58 \, 514 \, 515 \, 593 \, 592 \, 593 \, 597
\, 599 \, 596 \, 516 \, 596 \, 598 \, 595 \, 598 \, 595 \, 595 \, 597
\, 591 \, 594 \, 596 \, 598 \, 594 \, 515 \, 509 \, 509 \, 516 \, 522
\, 531 \, 531 \, 511 \, 511 \, 536 \, 537 \, 520 \, 523 \, 523 \, 533
\, 534 \, 538 \, 539 \, 552 \, 555 \, 578 \, 554 \, 554 \, 553 \, 554
\, 544 \, 543 \, 509 \, 512 \, 432 \, 432 \, 507 \, 507 \, 440 \, 439
\, 429 \, 430 \, 502 \, 501 \, 483 \, 488 \, 442 \, 447 \, 442 \, 468
\, 468 \, 505 \, 511 \, 506 \, 481 \, 482 \, 450 \, 435 \, 456 \, 439
\, 457 \, 495 \, 497 \, 495 \, 484 \, 491 \, 484 \, 499 \, 457 \, 459
\, 480 \, 487 \, 490 \, 490 \, 456 \, 460 \, 470 \, 501 \, 455 \, 459
\, 457 \, 460 \, 453 \, 462 \, 501 \, 449 \, 461 \, 461 \, 502 \, 502
\, 502 \, 462 \, 452 \, 464 \, 501 \, 501 \, 506 \, 445 \, 434 \, 436
\, 445 \, 461 \, 453 \, 454 \, 490 \, 493 \, 493 \, 483 \, 485 \, 435
\, 452 \, 449 \, 453 \, 494 \, 495 \, 496 \, 494 \, 488 \, 439 \, 436
\, 455 \, 496 \, 488 \, 490 \, 445 \, 492 \, 491 \, 439 \, 501 \, 501
\, 496 \, 492 \, 492 \, 439 \, 495 \, 499 \, 496 \, 491 \, 491 \, 432
\, 433 \, 502 \, 503 \, 500 \, 440 \, 440 \, 497 \, 503 \, 501 \, 499
\, 498 \, 429 \, 430 \, 431 \, 468 \, 491 \, 432 \, 432 \, 455 \, 456
\, 474 \, 490 \, 431 \, 374 \, 481 \, 480 \, 491 \, 428 \, 374 \, 489
\, 378 \, 482 \, 481 \, 491 \, 491 \, 380 \, 479 \, 493 \, 492 \, 380
\, 493 \, 393 \, 392 \, 400 \, 380 \, 381 \, 385 \, 395 \, 396 \, 388
\, 381 \, 386 \, 394 \, 391 \, 448 \, 449 \, 426 \, 431 \, 425 \, 420
\, 416 \, 433 \, 424 \, 406 \, 413 \, 424 \, 412 \, 412 \, 404 \, 419
\, 412 \, 432 \, 499 \, 499 \, 413 \, 403 \, 403 \, 413 \, 413 \, 495
\, 498 \, 500 \, 502 \, 504 \, 509 \, 500 \, 498 \, 412 \, 412 \, 412
\, 503 \, 503 \, 405 \, 405 \, 400 \, 405 \, 413 \, 415 \, 413 \, 503
\, 506 \, 504 \, 404 \, 404 \, 412 \, 406 \, 433 \, 433 \, 437 \, 428
\, 417 \, 409 \, 409 \, 412 \, 434 \, 422 \, 422 \, 435 \, 408 \, 404
\, 404 \, 411 \, 427 \, 406 \, 426 \, 415 \, 414 \, 425 \, 399 \, 395
\, 396 \, 399 \, 414 \, 418 \, 415 \, 413 \, 418 \, 423 \, 424 \, 393
\, 394 \, 412 \, 386 \, 405 \, 403 \, 418 \, 347 \, 352 \, 352 \, 318
\, 418 \, 411 \, 410 \, 410 \, 411 \, 353 \, 353 \, 289 \, 296 \, 298
\, 374 \, 413 \, 415 \, 412 \, 409 \, 406 \, 409 \, 412 \, 352 \, 347
\, 352 \, 352 \, 327 \, 319 \, 311 \, 282 \, 283 \, 377 \, 420 \, 417
\, 412 \, 411 \, 412 \, 353 \, 355 \, 356 \, 353 \, 296 \, 409 \, 325
\, 317 \, 317 \, 365 \, 416 \, 413 \, 413 \, 356 \, 275 \, 316 \, 314
\, 315 \, 316 \, 278 \, 280 \, 280 \, 254 \, 391 \, 362 \, 285 \, 288
\, 388 \, 312 \, 309 \, 313 \, 348 \, 348 \, 361 \, 280 \, 276 \, 275
\, 288 \, 291 \, 289 \, 271 \, 275 \, 275 \, 315 \, 310 \, 315 \, 330
\, 329 \, 329 \, 276 \, 279 \, 281 \, 286 \, 292 \, 285 \, 281 \, 279
\, 276 \, 386 \, 387 \, 328 \, 280 \, 282 \, 285 \, 284 \, 280 \, 366
\, 279 \, 277 \, 273 \, 274 \, 281 \, 330 \, 320 \, 320 \, 330 \, 278
\, 280 \, 276 \, 278 \, 272 \, 275 \, 276 \, 272 \, 280 \, 278 \, 277
\, 279 \, 278 \, 279 \, 302 \, 302 \, 280 \, 279 \, 276 \, 276 \, 282
\, 342 \, 343 \, 310 \, 310 \, 310 \, 315 \, 411 \, 408 \, 410 \, 316
\, 318 \, 318 \, 316 \, 316 \, 312 \, 311 \, 352 \, 171 \, 170 \, 412
\, 411 \, 315 \, 319 \, 321 \, 319 \, 350 \, 121 \, 122 \, 122 \, 173
\, 170 \, 411 \, 313 \, 315 \, 314 \, 370 \, 123 \, 124 \, 124 \, 123
\, 172 \, 171 \, 170 \, 412 \, 350 \, 355 \, 389 \, 314 \, 315 \, 315
\, 125 \, 171 \, 409 \, 316 \, 317 \, 318 \, 316 \, 170 \, 407 \, 399
\, 396 \, 396 \, 399 \, 405 \, 407 \, 162 \, 398 \, 395 \, 393 \, 397
\, 406 \, 163 \, 164 \, 166 \, 163 \, 314 \, 313 \, 314 \, 315 \, 405
\, 406 \, 162 \, 165 \, 165 \, 312 \, 313 \, 392 \, 162 \, 162 \, 165
\, 375 \, 313 \, 313 \, 391 \, 392 \, 163 \, 163 \, 161 \, 164 \, 313
\, 315 \, 316 \, 314 \, 162 \, 164 \, 162 \, 316 \, 316 \, 7 \, 163
\, 162 \, 164 \, 376 \, 316 \, 317 \, 318 \, 317 \, 20 \, 32 \, 20
\, 154 \, 21 \, 364 \, 370 \, 320 \, 155 \, 157 \, 11 \, 21 \, 33 \,
342 \, 368 \, 31 \, 154 \, 20 \, 20 \, 31 \, 29 \, 22 \, 369 \, 159
\, 160 \, 498 \, 30 \, 32 \, 159 \, 155 \, 156 \, 155 \, 155 \, 151
\, 33 \, 32 \, 30 \, 161 \, 31 \, 162 \, 31 \, 31 \, 366 \, 157 \,
157 \, 156 \, 157 \, 153 \, 153 \, 151 \, 30 \, 32 \, 29 \, 364 \,
159 \, 158 \, 158 \, 159 \, 159 \, 29 \, 31 \, 370 \, 160 \, 156 \,
155 \, 345 \, 351 \, 359 \, 350 \, 345 \, 534 \, 489 \, 159 \, 157
\, 538 \, 551 \, 553 \, 541 \, 347 \, 350 \, 349 \, 347 \, 343 \, 388
\, 534 \, 548 \, 166 \, 172 \, 544 \, 549 \, 545 \, 342 \, 450 \, 163
\, 386 \, 385 \, 342 \, 343 \, 169 \, 453 \, 454 \, 419 \, 413 \, 414
\, 418 \, 550 \, 341 \, 343 \, 167 \, 172 \, 167 \, 451 \, 452 \, 413
\, 564 \, 565 \, 563 \, 552 \, 465 \, 455 \, 170 \, 456 \, 450 \, 456
\, 419 \, 343 \, 461 \, 457 \, 454 \, 455 \, 450 \, 455 \, 454 \, 419
\, 421 \, 419 \, 452 \, 400 \, 567 \, 457 \, 457 \, 458 \, 453 \, 453
\, 451 \, 420 \, 562 \, 478 \, 164 \, 403 \, 453 \, 451 \, 399 \, 401
\, 456 \, 455 \, 456 \, 459 \, 417 \, 417 \, 422 \, 422 \, 422 \, 563
\, 461 \, 472 \, 164 \, 392 \, 401 \, 399 \, 458 \, 419 \, 421 \, 424
\, 565 \, 451 \, 166 \, 166 \, 453 \, 451 \, 400 \, 458 \, 453 \, 415
\, 451 \, 402 \, 398 \, 405 \, 462 \, 452 \, 452 \, 414 \, 415 \, 470
\, 411 \, 408 \, 461 \, 463 \, 456 \, 453 \, 435 \, 448 \, 446 \, 446
\, 463 \, 461 \, 412 \, 483 \, 484 \, 437 \, 445 \, 444 \, 445 \, 462
\, 425 \, 433 \, 465 \, 406 \, 434 \, 438 \, 439 \, 622 \, 460 \, 414
\, 411 \, 457 \, 166 \, 456 \, 458 \, 433 \, 435 \, 407 \, 406 \, 435
\, 440 \, 441 \, 477 \, 634 \, 456 \, 458 \, 165 \, 167 \, 461 \, 458
\, 434 \, 405 \, 435 \, 452 \, 165 \, 633 \, 635 \, 457 \, 166 \, 456
\, 461 \, 460 \, 459 \, 405 \, 405 \, 443 \, 598 \, 414 \, 469 \, 471
\, 633 \, 635 \, 636 \, 404 \, 405 \, 442 \, 437 \, 672 \, 467 \, 632
\, 404 \, 404 \, 591 \, 638 \, 634 \, 633 \, 403 \, 402 \, 402 \, 404
\, 431 \, 637 \, 635 \, 401 \, 400 \, 401 \, 418 \, 166 \, 118 \, 430
\, 125 \, 119 \, 645 \, 121 \, 117 \, 117 \, 121 \, 627 \, 636 \, 626
\, 117 \, 735 \, 735 \, 640 \, 118 \, 118 \, 642 \, 115 \, 700 \, 642
\, 117 \, 113 \, 638 \, 642 \, 617 \, 617 \, 639 \, 634 \, 635 \, 111
\, 114 \, 114 \, 389 \, 388 \, 389 \, 638 \, 111 \, 115 \, 388 \, 390
\, 390 \, 634 \, 637 \, 112 \, 110 \, 112 \, 112 \, 389 \, 388 \, 387
\, 386 \, 388 \, 388 \, 111 \, 112 \, 389 \, 624 \, 630 \, 632 \, 826
\, 830 \, 818 \, 814 \, 814 \, 827 \, 828 \, 826 \, 830 \, 816 \, 810
\, 816 \, 828 \, 832 \, 837 \, 832 \, 832 \, 832 \, 833 \, 835 \, 830
\, 836 \, 786 \, 800 \, 835 \, 831 \, 803 \, 830 \, 834 \, 784 \, 817
\, 835 \, 803 \, 815 \, 839 \, 827 \, 819 \, 819 \, 836 \, 765 \, 827
\, 824 \, 816 \, 44 \, 837 \, 806 \, 806 \, 45 \, 45 \, 43 \, 44 \,
44 \, 44 \, 42 \, 45 \, 42 \, 46 \, 321 \, 44 \, 43 \, 43 \, 322 \,
323 \, 324 \, 322 \, 37 \, 325 \, 36 \, 37 \, 41 \, 36 \, 36 \, 38
\, 325 \, 39 \, 37 \, 37 \, 326 \, 327 \, 326 \, 894 \, 898 \, 906
\, 899 \, 894 \, 37 \, 945 \, 958 \, 953 \, 955 \, 884 \, 911 \, 946
\, 946 \, 954 \, 954 \, 958 \, 896 \, 900 \, 916 \, 908 \, 905 \, 900
\, 896 \, 32 \, 945 \, 947 \, 951 \, 32 \, 32 \, 962 \, 959 \, 921
\, 33 \, 953 \, 963 \, 967 \, 955 \, 33 \, 970 \, 924 \, 143 \, 153
\, 154 \, 153 \, 143 \, 974 \, 938 \, 931 \, 139 \, 142 \, 154 \, 150
\, 142 \, 138 \, 972 \, 972 \, 926 \, 929 \, 941 \, 927 \, 150 \, 930
\, 932 \, 28 \, 27 \, 28 \, 980 \, 982 \, 984 \, 988 \, 988 \, 149
\, 151 \, 932 \, 930 \, 146 \, 151 \, 20 \, 139 \, 983 \, 151 \, 149
\, 931 \, 136 \, 148 \, 931 \, 134 \, 133 \, 138 \, 992 \, 150 \, 150
\, 144 \, 146 \, 1052 \, 137 \, 136 \, 133 \, 139 \, 149 \, 28 \, 1027
\, 136 \, 993 \, 996 \, 997 \, 994 \, 149 \, 29 \, 27 \, 1059 \, 136
\, 133 \, 133 \, 1051 \, 133 \, 999 \, 1010 \, 999 \, 132 \, 132 \,
134 \, 134 \, 131 \, 135 \, 1013 \, 1014 \, 133 \, 131 \, 133 \, 28
\, 26 \, 28 \, 1006 \, 1012 \, 1015 \, 1116 \, 1012 \, 133 \, 131 \,
34 \, 131 \, 131 \, 1013 \, 132 \, 1013 \, 130 \, 130 \, 132 \, 132
\, 1117 \, 1120 \, 1118 \, 24 \, 18 \, 23 \, 27 \, 130 \, 132 \, 1125
\, 1126 \, 28 \, 29 \, 1104 \, 1120 \, 25 \, 1098 \, 1090 \, 1118 \,
1094 \, 1118 \, 1096 \, 1099 \, 1096 \, 1097 \, 1121 \, 1128 \, 1128
\, 1122 \, 25 \, 22 \, 22 \, 23 \, 1097 \, 21 \, 21 \, 24 \, 1098 \,
1099 \, 1134 \, 23 \, 22 \, 1097 \, 448 \, 451 \, 452 \, 453 \, 450
\, 1097 \, 450 \, 453 \, 449 \, 25 \, 54 \, 450 \, 53 \, 53 \, 1107
\, 1134 \, 53 \, 1100 \, 1102 \, 1105 \, 1101 \, 22 \, 53 \, 453 \,
453 \, 1108 \, 1104 \, 19 \, 51 \, 50 \, 52 \, 452 \, 452 \, 1104 \,
491 \, 452 \, 1108 \, 1109 \, 1107 \, 19 \, 495 \, 1108 \, 20 \, 18
\, 495 \, 499 \, 501 \, 502 \, 499 \, 1109 \, 20 \, 502 \, 495 \, 18
\, 20 \, 18 \, 496 \, 502 \, 496 \, 1109 \, 1110 \, 17 \, 19 \, 19
\, 495 \, 495 \, 500 \, 500 \, 19 \, 17 \, 496 \, 497 \, 501 \, 502
\, 18 \, 499 \, 17 \, 19;
#X obj 467 124 counter 0;
#X floatatom 525 90 5 0 0 0 - - -;
#X text 562 94 number of values;
#X obj 524 56 loadbang;
#N canvas 0 22 450 278 (subpatch) 0;
#X array curve 500 float 5;
#A 0 166 167 329 329 285 289 290 315 286 288 291 283 291 314 283 290
285 310 290 285 284 40 51 53 64 289 286 313 52 329 53 309 317 355 323
356 396 478 479 51 53 53 488 495 496 488 54 56 56 54 51 52 57 59 59
57 52 53 54 53 60 61 62 60 499 499 54 57 57 55 62 64 63 58 60 58 514
515 593 592 593 597 599 596 516 596 598 595 598 595 595 597 591 594
596 598 594 515 509 509 516 522 531 531 511 511 536 537 520 523 523
533 534 538 539 552 555 578 554 554 553 554 544 543 509 512 432 432
507 507 440 439 429 430 502 501 483 488 442 447 442 468 468 505 511
506 481 482 450 435 456 439 457 495 497 495 484 491 484 499 457 459
480 487 490 490 456 460 470 501 455 459 457 460 453 462 501 449 461
461 502 502 502 462 452 464 501 501 506 445 434 436 445 461 453 454
490 493 493 483 485 435 452 449 453 494 495 496 494 488 439 436 455
496 488 490 445 492 491 439 501 501 496 492 492 439 495 499 496 491
491 432 433 502 503 500 440 440 497 503 501 499 498 429 430 431 468
491 432 432 455 456 474 490 431 374 481 480 491 428 374 489 378 482
481 491 491 380 479 493 492 380 493 393 392 400 380 381 385 395 396
388 381 386 394 391 448 449 426 431 425 420 416 433 424 406 413 424
412 412 404 419 412 432 499 499 413 403 403 413 413 495 498 500 502
504 509 500 498 412 412 412 503 503 405 405 400 405 413 415 413 503
506 504 404 404 412 406 433 433 437 428 417 409 409 412 434 422 422
435 408 404 404 411 427 406 426 415 414 425 399 395 396 399 414 418
415 413 418 423 424 393 394 412 386 405 403 418 347 352 352 318 418
411 410 410 411 353 353 289 296 298 374 413 415 412 409 406 409 412
352 347 352 352 327 319 311 282 283 377 420 417 412 411 412 353 355
356 353 296 409 325 317 317 365 416 413 413 356 275 316 314 315 316
278 280 280 254 391 362 285 288 388 312 309 313 348 348 361 280 276
275 288 291 289 271 275 275 315 310 315 330 329 329 276 279 281 286
292 285 281 279 276 386 387 328 280 282 285 284 280 366 279 277 273
274 281 330 320 320 330 278 280 276 278 272 275 276 272 19;
#X coords 0 -500 499 500 500 500 1 0 0;
#X restore 447 -553 graph;
#X floatatom 464 160 5 0 0 0 - - -;
#X obj 676 91 bng 15 250 50 0 empty empty empty 17 7 0 10 -262144 -1
-1;
#X obj 1096 -313 tabread curve;
#X floatatom 1095 -348 5 0 0 0 - - -;
#X obj 1096 -288 nbx 5 14 -1e+37 1e+37 0 0 empty empty empty 0 -8 0
10 -262144 -1 -1 515 256;
#X text 1195 -214 use to modify sound!;
#X text 624 -237 TODO: Adjust bounds;
#X obj 1088 -129 tabosc4~ curve;
#X obj 1082 -95 *~ 1;
#X floatatom 1212 -132 5 0 0 0 - - -;
#X obj 1207 -179 loadbang;
#X msg 1210 -154 504;
#X obj 1089 -39 +~ 0;
#X floatatom 1187 -34 5 0 0 0 - - -;
#X obj 1182 -81 loadbang;
#X msg 1185 -56 188;
#X obj 1080 66 spigot~;
#X obj 1078 103 dac~;
#X obj 1116 31 tgl 15 0 empty empty empty 17 7 0 10 -262144 -1 -1 0
1;
#X text 1137 25 on/off;
#X obj 1081 3 tabosc4~ curve;
#X text 671 -35 make sure size == n^2+3 (e.g. \, 131);
#X floatatom 1066 -150 5 0 0 0 - - -;
#X text 971 -159 oughtta be a float number of 0.53;
#X text 530 140 TODO: Auto-reset counter;
#X obj 366 -16 bng 15 250 50 0 empty empty empty 17 7 0 10 -262144
-1 -1;
#X obj 429 13 t b b;
#X obj 429 89 t f b;
#X text 267 7 reset + trigger message;
#X text 697 88 reset to min;
#X connect 1 0 34 0;
#X connect 2 0 7 0;
#X connect 3 0 2 4;
#X connect 5 0 3 0;
#X connect 7 0 0 1;
#X connect 8 0 2 2;
#X connect 9 0 11 0;
#X connect 10 0 9 0;
#X connect 14 0 15 0;
#X connect 15 0 19 0;
#X connect 16 0 15 1;
#X connect 17 0 18 0;
#X connect 18 0 16 0;
#X connect 19 0 27 0;
#X connect 20 0 19 1;
#X connect 21 0 22 0;
#X connect 22 0 20 0;
#X connect 23 0 24 0;
#X connect 23 1 24 1;
#X connect 25 0 23 1;
#X connect 27 0 23 0;
#X connect 29 0 14 0;
#X connect 32 0 33 0;
#X connect 33 0 2 2;
#X connect 33 1 1 0;
#X connect 34 0 0 0;
#X connect 34 1 2 0;
