#N canvas 815 23 877 978 10;
#X obj 13 11 tgl 15 0 empty empty empty 17 7 0 10 -262144 -1 -1 0 1
;
#X msg 13 33 \; pd dsp \$1;
#N canvas 414 206 450 278 (subpatch) 0;
#X array channelL 9.72698e+06 float 0;
#X coords 0 1 9.72698e+06 -1 200 140 1 0 0;
#X restore 376 40 graph;
#X obj 135 35 bng 15 250 50 0 empty empty empty 17 7 0 10 -262144 -1
-1;
#X obj 135 83 soundfiler;
#X floatatom 144 107 12 0 0 0 - - -;
#X obj 135 160 expr 44100 / $f1;
#X obj 144 131 s sampleSize;
#X floatatom 145 184 12 0 0 0 - - -;
#X obj 135 209 phasor~;
#X obj 135 270 *~;
#X obj 150 247 r sampleSize;
#X obj 91 305 tabread4~ channelL;
#X obj 231 304 tabread4~ channelR;
#X obj 134 552 *~;
#X obj 179 552 *~;
#X obj 135 729 dac~ 1 2;
#X obj 225 510 vsl 30 40 0 1 0 0 empty empty empty 0 -9 0 10 -262144
-1 -1 3400 1;
#N canvas 0 22 450 278 (subpatch) 0;
#X array channelR 9.72698e+06 float 0;
#X coords 0 1 9.72698e+06 -1 200 140 1 0 0;
#X restore 581 40 graph;
#X msg 86 60 read -resize surfinusa.wav channelL channelR;
#N canvas 0 22 450 278 (subpatch) 0;
#X array magnitude 64 float 1;
#A 0 3.08061 1.31069 0.48349 0.397655 0.454474 0.17055 0.0993759 0.107776
0.049236 0.0187876 0.0343094 0.0174858 0.0127196 0.0144441 0.0342273
0.0330931 0.0123826 0.0115976 0.00777191 0.0115514 0.0217486 0.0321249
0.01545 0.0141136 0.0107714 0.0127836 0.0131746 0.0127793 0.0147988
0.00837726 0.00801743 0.0131244 0.0147629 0 0 0 0 0 0 0 0 0 0 0 0 0
0 0 0 0 0 0 0 0 0 0 0 0 0 0 0 0 0 0;
#X coords 0 10 64 0 200 140 1 0 0;
#X restore 577 199 graph;
#X obj 311 435 rfft~;
#X obj 307 478 *~;
#X obj 350 479 *~;
#X obj 309 509 +~;
#X obj 302 539 sqrt~;
#X obj 379 517 bng 15 250 50 0 empty empty empty 17 7 0 10 -262144
-1 -1;
#X obj 394 559 print~;
#X obj 292 644 tabwrite~ magnitude;
#X obj 327 580 tgl 15 0 empty empty empty 17 7 0 10 -262144 -1 -1 0
1;
#X obj 325 608 metro 250;
#X floatatom 45 568 5 0 0 0 - - -;
#X obj 116 633 bp~;
#X obj 173 633 bp~;
#X floatatom 216 581 5 0 150 0 - - -;
#X connect 0 0 1 0;
#X connect 3 0 19 0;
#X connect 4 0 5 0;
#X connect 4 0 6 0;
#X connect 5 0 7 0;
#X connect 6 0 8 0;
#X connect 6 0 9 0;
#X connect 9 0 10 0;
#X connect 10 0 12 0;
#X connect 10 0 13 0;
#X connect 11 0 10 1;
#X connect 12 0 14 0;
#X connect 12 0 21 0;
#X connect 13 0 15 0;
#X connect 14 0 32 0;
#X connect 15 0 33 0;
#X connect 17 0 14 1;
#X connect 17 0 15 1;
#X connect 19 0 4 0;
#X connect 21 0 22 0;
#X connect 21 0 22 1;
#X connect 21 1 23 0;
#X connect 21 1 23 1;
#X connect 22 0 24 0;
#X connect 23 0 24 1;
#X connect 24 0 25 0;
#X connect 25 0 27 0;
#X connect 25 0 28 0;
#X connect 26 0 27 0;
#X connect 29 0 30 0;
#X connect 30 0 28 0;
#X connect 31 0 32 1;
#X connect 31 0 33 1;
#X connect 32 0 16 0;
#X connect 33 0 16 1;
#X connect 34 0 32 2;
#X connect 34 0 33 2;
